# Blender 4.1.1
# www.blender.org
mtllib TestCube6_golden.mtl
o ticket_v001
v -1.000000 0.000000 0.000000
v -1.572978 0.000000 0.000000
v 0.000000 0.000000 0.000000
v 1.000000 0.000000 0.000000
v 0.000000 0.000000 1.975000
v -1.000000 0.000000 1.975000
v 1.000000 0.000000 1.975000
v 2.000000 0.000000 1.975000
v 1.572977 0.000000 0.000000
v 1.571890 0.000000 0.014499
v 1.580825 0.000000 0.133732
v 1.607432 0.000000 0.250303
v 1.651115 0.000000 0.361605
v 1.710899 0.000000 0.465155
v 1.785449 0.000000 0.558637
v 1.873098 0.000000 0.639964
v 1.971890 0.000000 0.707319
v 2.000000 0.000000 0.720856
v -2.000000 0.000000 1.975000
v -1.000000 0.000000 3.950000
v -2.000000 0.000000 3.950000
v 1.000000 0.000000 3.950000
v 0.795666 0.000000 3.950000
v 0.791065 0.000000 3.888599
v 0.764458 0.000000 3.772029
v 0.720775 0.000000 3.660726
v 0.660991 0.000000 3.557177
v 0.586441 0.000000 3.463695
v 0.498792 0.000000 3.382368
v 0.400000 0.000000 3.315013
v 0.292273 0.000000 3.263134
v 0.178017 0.000000 3.227891
v 0.059784 0.000000 3.210070
v 0.000000 0.000000 3.210070
v 2.000000 0.000000 3.950000
v -2.000000 0.000000 0.720855
v -1.971891 0.000000 0.707319
v -1.873099 0.000000 0.639964
v -1.785450 0.000000 0.558637
v -1.710900 0.000000 0.465154
v -1.651116 0.000000 0.361605
v -1.607433 0.000000 0.250302
v -1.580827 0.000000 0.133732
v -1.571892 0.000000 0.014498
v -0.059784 0.000000 3.210070
v -0.178017 0.000000 3.227891
v -0.292273 0.000000 3.263134
v -0.400000 0.000000 3.315013
v -0.498792 0.000000 3.382368
v -0.586442 0.000000 3.463695
v -0.660991 0.000000 3.557177
v -0.720775 0.000000 3.660726
v -0.764458 0.000000 3.772029
v -0.791065 0.000000 3.888599
v -0.795666 0.000000 3.950000
v 0.000000 -0.000000 -1.975000
v -1.000000 -0.000000 -1.975000
v 1.000000 -0.000000 -1.975000
v 2.000000 -0.000000 -1.975000
v 1.571890 -0.000000 -0.014499
v 1.580825 -0.000000 -0.133732
v 1.607432 -0.000000 -0.250303
v 1.651115 -0.000000 -0.361605
v 1.710899 -0.000000 -0.465155
v 1.785449 -0.000000 -0.558637
v 1.873098 -0.000000 -0.639964
v 1.971890 -0.000000 -0.707319
v 2.000000 -0.000000 -0.720856
v -2.000000 -0.000000 -1.975000
v -1.000000 -0.000000 -3.950000
v -2.000000 -0.000000 -3.950000
v 1.000000 -0.000000 -3.950000
v 0.795666 -0.000000 -3.950000
v 0.791065 -0.000000 -3.888599
v 0.764458 -0.000000 -3.772029
v 0.720775 -0.000000 -3.660726
v 0.660991 -0.000000 -3.557177
v 0.586441 -0.000000 -3.463695
v 0.498792 -0.000000 -3.382368
v 0.400000 -0.000000 -3.315013
v 0.292273 -0.000000 -3.263134
v 0.178017 -0.000000 -3.227891
v 0.059784 -0.000000 -3.210070
v 0.000000 -0.000000 -3.210070
v 2.000000 -0.000000 -3.950000
v -2.000000 -0.000000 -0.720855
v -1.971891 -0.000000 -0.707319
v -1.873099 -0.000000 -0.639964
v -1.785450 -0.000000 -0.558637
v -1.710900 -0.000000 -0.465154
v -1.651116 -0.000000 -0.361605
v -1.607433 -0.000000 -0.250302
v -1.580827 -0.000000 -0.133732
v -1.571892 -0.000000 -0.014498
v -0.059784 -0.000000 -3.210070
v -0.178017 -0.000000 -3.227891
v -0.292273 -0.000000 -3.263134
v -0.400000 -0.000000 -3.315013
v -0.498792 -0.000000 -3.382368
v -0.586442 -0.000000 -3.463695
v -0.660991 -0.000000 -3.557177
v -0.720775 -0.000000 -3.660726
v -0.764458 -0.000000 -3.772029
v -0.791065 -0.000000 -3.888599
v -0.795666 -0.000000 -3.950000
v -1.000000 0.034000 -0.000000
v 0.000000 0.034000 -0.000000
v 0.000000 0.034000 1.975000
v -1.000000 0.034000 1.975000
v 1.000000 0.034000 -0.000000
v 1.000000 0.034000 1.975000
v 2.000000 0.034000 1.975000
v 1.572977 0.034000 -0.000000
v 1.571890 0.034000 0.014499
v 1.580825 0.034000 0.133732
v 1.607432 0.034000 0.250303
v 1.651115 0.034000 0.361605
v 1.710899 0.034000 0.465155
v 1.785449 0.034000 0.558637
v 1.873098 0.034000 0.639964
v 1.971890 0.034000 0.707319
v 2.000000 0.034000 0.720856
v -2.000000 0.034000 1.975000
v -1.000000 0.034000 3.950000
v -2.000000 0.034000 3.950000
v 1.000000 0.034000 3.950000
v 0.795666 0.034000 3.950000
v 0.791065 0.034000 3.888599
v 0.764458 0.034000 3.772029
v 0.720775 0.034000 3.660726
v 0.660991 0.034000 3.557177
v 0.586441 0.034000 3.463695
v 0.498792 0.034000 3.382368
v 0.400000 0.034000 3.315013
v 0.292273 0.034000 3.263134
v 0.178017 0.034000 3.227891
v 0.059784 0.034000 3.210070
v 0.000000 0.034000 3.210070
v 2.000000 0.034000 3.950000
v -1.572978 0.034000 -0.000000
v -2.000000 0.034000 0.720855
v -1.971891 0.034000 0.707319
v -1.873099 0.034000 0.639964
v -1.785450 0.034000 0.558637
v -1.710900 0.034000 0.465154
v -1.651116 0.034000 0.361605
v -1.607433 0.034000 0.250302
v -1.580827 0.034000 0.133732
v -1.571892 0.034000 0.014498
v -0.059784 0.034000 3.210070
v -0.178017 0.034000 3.227891
v -0.292273 0.034000 3.263134
v -0.400000 0.034000 3.315013
v -0.498792 0.034000 3.382368
v -0.586442 0.034000 3.463695
v -0.660991 0.034000 3.557177
v -0.720775 0.034000 3.660726
v -0.764458 0.034000 3.772029
v -0.791065 0.034000 3.888599
v -0.795666 0.034000 3.950000
v -1.000000 0.034000 -1.975000
v 0.000000 0.034000 -1.975000
v 1.000000 0.034000 -1.975000
v 2.000000 0.034000 -1.975000
v 2.000000 0.034000 -0.720856
v 1.971890 0.034000 -0.707319
v 1.873098 0.034000 -0.639964
v 1.785449 0.034000 -0.558637
v 1.710899 0.034000 -0.465155
v 1.651115 0.034000 -0.361605
v 1.607432 0.034000 -0.250303
v 1.580825 0.034000 -0.133732
v 1.571890 0.034000 -0.014499
v -2.000000 0.034000 -1.975000
v -2.000000 0.034000 -3.950000
v -1.000000 0.034000 -3.950000
v 0.000000 0.034000 -3.210070
v 0.059784 0.034000 -3.210070
v 0.178017 0.034000 -3.227891
v 0.292273 0.034000 -3.263134
v 0.400000 0.034000 -3.315013
v 0.498792 0.034000 -3.382368
v 0.586441 0.034000 -3.463695
v 0.660991 0.034000 -3.557177
v 0.720775 0.034000 -3.660726
v 0.764458 0.034000 -3.772029
v 0.791065 0.034000 -3.888599
v 0.795666 0.034000 -3.950000
v 1.000000 0.034000 -3.950000
v 2.000000 0.034000 -3.950000
v -1.571892 0.034000 -0.014498
v -1.580827 0.034000 -0.133732
v -1.607433 0.034000 -0.250302
v -1.651116 0.034000 -0.361605
v -1.710900 0.034000 -0.465154
v -1.785450 0.034000 -0.558637
v -1.873099 0.034000 -0.639964
v -1.971891 0.034000 -0.707319
v -2.000000 0.034000 -0.720855
v -0.795666 0.034000 -3.950000
v -0.791065 0.034000 -3.888599
v -0.764458 0.034000 -3.772029
v -0.720775 0.034000 -3.660726
v -0.660991 0.034000 -3.557177
v -0.586442 0.034000 -3.463695
v -0.498792 0.034000 -3.382368
v -0.400000 0.034000 -3.315013
v -0.292273 0.034000 -3.263134
v -0.178017 0.034000 -3.227891
v -0.059784 0.034000 -3.210070
vn -0.0000 -1.0000 -0.0000
vn -0.0000 1.0000 -0.0000
vn 1.0000 -0.0000 -0.0000
vn 0.9888 -0.0000 -0.1490
vn 0.9888 -0.0000 -0.1491
vn 0.9556 -0.0000 -0.2947
vn 0.9556 -0.0000 -0.2948
vn 0.9010 -0.0000 -0.4339
vn 0.8262 -0.0000 -0.5633
vn 0.7331 -0.0000 -0.6802
vn 0.7330 -0.0000 -0.6802
vn 0.6235 -0.0000 -0.7818
vn 0.5000 -0.0000 -0.8660
vn 0.4339 -0.0000 -0.9010
vn -0.0000 -0.0000 1.0000
vn -0.9972 -0.0000 0.0747
vn -0.9888 -0.0000 0.1490
vn -0.9888 -0.0000 0.1491
vn -0.9556 -0.0000 0.2947
vn -0.9556 -0.0000 0.2948
vn -0.9010 -0.0000 0.4339
vn -0.8262 -0.0000 0.5633
vn -0.7331 -0.0000 0.6802
vn -0.7330 -0.0000 0.6802
vn -0.6235 -0.0000 0.7818
vn -0.5000 -0.0000 0.8660
vn -0.3654 -0.0000 0.9309
vn -0.3653 -0.0000 0.9309
vn -0.2225 -0.0000 0.9749
vn -0.0747 -0.0000 0.9972
vn 0.0747 -0.0000 0.9972
vn 0.2225 -0.0000 0.9749
vn 0.3653 -0.0000 0.9309
vn 0.3654 -0.0000 0.9309
vn 0.5000 -0.0000 0.8660
vn 0.6235 -0.0000 0.7818
vn 0.7330 -0.0000 0.6802
vn 0.7331 -0.0000 0.6802
vn 0.8262 -0.0000 0.5633
vn 0.9010 -0.0000 0.4339
vn 0.9556 -0.0000 0.2948
vn 0.9556 -0.0000 0.2947
vn 0.9888 -0.0000 0.1491
vn 0.9888 -0.0000 0.1490
vn 0.9972 -0.0000 0.0747
vn -1.0000 -0.0000 -0.0000
vn -0.4339 -0.0000 -0.9010
vn -0.5000 -0.0000 -0.8660
vn -0.6235 -0.0000 -0.7818
vn -0.7330 -0.0000 -0.6802
vn -0.7331 -0.0000 -0.6802
vn -0.8262 -0.0000 -0.5633
vn -0.9010 -0.0000 -0.4339
vn -0.9556 -0.0000 -0.2948
vn -0.9556 -0.0000 -0.2947
vn -0.9888 -0.0000 -0.1491
vn -0.9888 -0.0000 -0.1490
vn -0.4339 -0.0000 0.9010
vn -0.0000 -0.0000 -1.0000
vn 0.9972 -0.0000 -0.0747
vn 0.3654 -0.0000 -0.9309
vn 0.3653 -0.0000 -0.9309
vn 0.2225 -0.0000 -0.9749
vn 0.0747 -0.0000 -0.9972
vn -0.0747 -0.0000 -0.9972
vn -0.2225 -0.0000 -0.9749
vn -0.3653 -0.0000 -0.9309
vn -0.3654 -0.0000 -0.9309
vn -0.9972 -0.0000 -0.0747
vn 0.4339 -0.0000 0.9010
vt 0.499947 0.126569
vt 0.499947 0.253137
vt 0.249973 0.253137
vt 0.249973 0.126569
vt 0.499947 0.379706
vt 0.249973 0.379706
vt 0.249973 0.506275
vt 0.499947 0.452227
vt 0.498112 0.452090
vt 0.483020 0.453221
vt 0.468266 0.456588
vt 0.454179 0.462117
vt 0.441073 0.469684
vt 0.429241 0.479120
vt 0.418947 0.490213
vt 0.410422 0.502717
vt 0.408709 0.506275
vt 0.249973 0.000000
vt 0.000000 0.126569
vt 0.000000 0.000000
vt 0.000000 0.379706
vt 0.000000 0.353844
vt 0.007771 0.353262
vt 0.022526 0.349894
vt 0.036613 0.344365
vt 0.049719 0.336798
vt 0.061551 0.327363
vt 0.071845 0.316269
vt 0.080370 0.303765
vt 0.086936 0.290130
vt 0.091396 0.275669
vt 0.093652 0.260704
vt 0.093652 0.253137
vt 0.000000 0.506275
vt 0.499947 0.054048
vt 0.408709 0.000000
vt 0.410422 0.003558
vt 0.418947 0.016062
vt 0.429241 0.027155
vt 0.441073 0.036591
vt 0.454179 0.044158
vt 0.468266 0.049687
vt 0.483020 0.053054
vt 0.498112 0.054185
vt 0.093652 0.245571
vt 0.091396 0.230606
vt 0.086936 0.216145
vt 0.080370 0.202510
vt 0.071845 0.190006
vt 0.061551 0.178912
vt 0.049719 0.169477
vt 0.036613 0.161910
vt 0.022526 0.156381
vt 0.007771 0.153013
vt 0.000000 0.152431
vt 0.749920 0.126569
vt 0.749920 0.253137
vt 0.749920 0.379706
vt 0.749920 0.506275
vt 0.591184 0.506275
vt 0.589471 0.502717
vt 0.580946 0.490213
vt 0.570653 0.479120
vt 0.558821 0.469684
vt 0.545715 0.462117
vt 0.531627 0.456588
vt 0.516873 0.453221
vt 0.501782 0.452090
vt 0.749920 0.000000
vt 0.999893 0.000000
vt 0.999893 0.126569
vt 0.906241 0.253137
vt 0.906241 0.260704
vt 0.908497 0.275669
vt 0.912957 0.290130
vt 0.919524 0.303765
vt 0.928049 0.316269
vt 0.938342 0.327363
vt 0.950174 0.336798
vt 0.963280 0.344365
vt 0.977368 0.349894
vt 0.992122 0.353262
vt 0.999893 0.353844
vt 0.999893 0.379706
vt 0.999893 0.506275
vt 0.501782 0.054185
vt 0.516873 0.053054
vt 0.531627 0.049687
vt 0.545714 0.044158
vt 0.558821 0.036591
vt 0.570653 0.027155
vt 0.580946 0.016062
vt 0.589471 0.003558
vt 0.591184 0.000000
vt 0.999893 0.152431
vt 0.992122 0.153013
vt 0.977368 0.156381
vt 0.963280 0.161910
vt 0.950174 0.169477
vt 0.938342 0.178912
vt 0.928049 0.190006
vt 0.919524 0.202510
vt 0.912957 0.216145
vt 0.908497 0.230606
vt 0.906241 0.245571
s 0
usemtl /obj/geo1/matnet1/goldenMat
f 1/1/1 3/2/1 5/3/1 6/4/1
f 3/2/1 4/5/1 7/6/1 5/3/1
f 8/7/1 7/6/1 4/5/1 9/8/1 10/9/1 11/10/1 12/11/1 13/12/1 14/13/1 15/14/1 16/15/1 17/16/1 18/17/1
f 19/18/1 6/4/1 20/19/1 21/20/1
f 5/3/1 7/6/1 22/21/1 23/22/1 24/23/1 25/24/1 26/25/1 27/26/1 28/27/1 29/28/1 30/29/1 31/30/1 32/31/1 33/32/1 34/33/1
f 7/6/1 8/7/1 35/34/1 22/21/1
f 2/35/1 1/1/1 6/4/1 19/18/1 36/36/1 37/37/1 38/38/1 39/39/1 40/40/1 41/41/1 42/42/1 43/43/1 44/44/1
f 6/4/1 5/3/1 34/33/1 45/45/1 46/46/1 47/47/1 48/48/1 49/49/1 50/50/1 51/51/1 52/52/1 53/53/1 54/54/1 55/55/1 20/19/1
f 1/1/1 57/56/1 56/57/1 3/2/1
f 3/2/1 56/57/1 58/58/1 4/5/1
f 59/59/1 68/60/1 67/61/1 66/62/1 65/63/1 64/64/1 63/65/1 62/66/1 61/67/1 60/68/1 9/8/1 4/5/1 58/58/1
f 69/69/1 71/70/1 70/71/1 57/56/1
f 56/57/1 84/72/1 83/73/1 82/74/1 81/75/1 80/76/1 79/77/1 78/78/1 77/79/1 76/80/1 75/81/1 74/82/1 73/83/1 72/84/1 58/58/1
f 58/58/1 72/84/1 85/85/1 59/59/1
f 2/35/1 94/86/1 93/87/1 92/88/1 91/89/1 90/90/1 89/91/1 88/92/1 87/93/1 86/94/1 69/69/1 57/56/1 1/1/1
f 57/56/1 70/71/1 105/95/1 104/96/1 103/97/1 102/98/1 101/99/1 100/100/1 99/101/1 98/102/1 97/103/1 96/104/1 95/105/1 84/72/1 56/57/1
f 106/1/2 109/4/2 108/3/2 107/2/2
f 107/2/2 108/3/2 111/6/2 110/5/2
f 112/7/2 122/17/2 121/16/2 120/15/2 119/14/2 118/13/2 117/12/2 116/11/2 115/10/2 114/9/2 113/8/2 110/5/2 111/6/2
f 123/18/2 125/20/2 124/19/2 109/4/2
f 108/3/2 138/33/2 137/32/2 136/31/2 135/30/2 134/29/2 133/28/2 132/27/2 131/26/2 130/25/2 129/24/2 128/23/2 127/22/2 126/21/2 111/6/2
f 111/6/2 126/21/2 139/34/2 112/7/2
f 140/35/2 149/44/2 148/43/2 147/42/2 146/41/2 145/40/2 144/39/2 143/38/2 142/37/2 141/36/2 123/18/2 109/4/2 106/1/2
f 109/4/2 124/19/2 160/55/2 159/54/2 158/53/2 157/52/2 156/51/2 155/50/2 154/49/2 153/48/2 152/47/2 151/46/2 150/45/2 138/33/2 108/3/2
f 106/1/2 107/2/2 162/57/2 161/56/2
f 107/2/2 110/5/2 163/58/2 162/57/2
f 164/59/2 163/58/2 110/5/2 113/8/2 173/68/2 172/67/2 171/66/2 170/65/2 169/64/2 168/63/2 167/62/2 166/61/2 165/60/2
f 174/69/2 161/56/2 176/71/2 175/70/2
f 162/57/2 163/58/2 189/84/2 188/83/2 187/82/2 186/81/2 185/80/2 184/79/2 183/78/2 182/77/2 181/76/2 180/75/2 179/74/2 178/73/2 177/72/2
f 163/58/2 164/59/2 190/85/2 189/84/2
f 140/35/2 106/1/2 161/56/2 174/69/2 199/94/2 198/93/2 197/92/2 196/91/2 195/90/2 194/89/2 193/88/2 192/87/2 191/86/2
f 161/56/2 162/57/2 177/72/2 210/105/2 209/104/2 208/103/2 207/102/2 206/101/2 205/100/2 204/99/2 203/98/2 202/97/2 201/96/2 200/95/2 176/71/2
f 9/8/3 113/8/3 114/9/3 10/9/3
f 10/9/3 114/9/3 115/10/4 11/10/4
f 11/10/5 115/10/5 116/11/6 12/11/6
f 12/11/7 116/11/7 117/12/8 13/12/8
f 13/12/8 117/12/8 118/13/9 14/13/9
f 14/13/9 118/13/9 119/14/10 15/14/10
f 15/14/11 119/14/11 120/15/12 16/15/12
f 16/15/12 120/15/12 121/16/13 17/16/13
f 17/16/13 121/16/13 122/17/14 18/17/14
f 18/17/3 122/17/3 112/7/3 8/7/3
f 8/7/3 112/7/3 139/34/3 35/34/3
f 35/34/15 139/34/15 126/21/15 22/21/15
f 22/21/15 126/21/15 127/22/15 23/22/15
f 23/22/16 127/22/16 128/23/17 24/23/17
f 24/23/18 128/23/18 129/24/19 25/24/19
f 25/24/20 129/24/20 130/25/21 26/25/21
f 26/25/21 130/25/21 131/26/22 27/26/22
f 27/26/22 131/26/22 132/27/23 28/27/23
f 28/27/24 132/27/24 133/28/25 29/28/25
f 29/28/25 133/28/25 134/29/26 30/29/26
f 30/29/26 134/29/26 135/30/27 31/30/27
f 31/30/28 135/30/28 136/31/29 32/31/29
f 32/31/29 136/31/29 137/32/30 33/32/30
f 33/32/30 137/32/30 138/33/15 34/33/15
f 34/33/15 138/33/15 150/45/31 45/45/31
f 45/45/31 150/45/31 151/46/32 46/46/32
f 46/46/32 151/46/32 152/47/33 47/47/33
f 47/47/34 152/47/34 153/48/35 48/48/35
f 48/48/35 153/48/35 154/49/36 49/49/36
f 49/49/36 154/49/36 155/50/37 50/50/37
f 50/50/38 155/50/38 156/51/39 51/51/39
f 51/51/39 156/51/39 157/52/40 52/52/40
f 52/52/40 157/52/40 158/53/41 53/53/41
f 53/53/42 158/53/42 159/54/43 54/54/43
f 54/54/44 159/54/44 160/55/45 55/55/45
f 55/55/15 160/55/15 124/19/15 20/19/15
f 20/19/15 124/19/15 125/20/15 21/20/15
f 21/20/46 125/20/46 123/18/46 19/18/46
f 19/18/46 123/18/46 141/36/46 36/36/46
f 36/36/47 141/36/47 142/37/48 37/37/48
f 37/37/48 142/37/48 143/38/49 38/38/49
f 38/38/49 143/38/49 144/39/50 39/39/50
f 39/39/51 144/39/51 145/40/52 40/40/52
f 40/40/52 145/40/52 146/41/53 41/41/53
f 41/41/53 146/41/53 147/42/54 42/42/54
f 42/42/55 147/42/55 148/43/56 43/43/56
f 43/43/57 148/43/57 149/44/46 44/44/46
f 44/44/46 149/44/46 140/35/46 2/35/46
f 2/35/46 140/35/46 191/86/46 94/86/46
f 94/86/46 191/86/46 192/87/17 93/87/17
f 93/87/18 192/87/18 193/88/19 92/88/19
f 92/88/20 193/88/20 194/89/21 91/89/21
f 91/89/21 194/89/21 195/90/22 90/90/22
f 90/90/22 195/90/22 196/91/23 89/91/23
f 89/91/24 196/91/24 197/92/25 88/92/25
f 88/92/25 197/92/25 198/93/26 87/93/26
f 87/93/26 198/93/26 199/94/58 86/94/58
f 86/94/46 199/94/46 174/69/46 69/69/46
f 69/69/46 174/69/46 175/70/46 71/70/46
f 71/70/59 175/70/59 176/71/59 70/71/59
f 70/71/59 176/71/59 200/95/59 105/95/59
f 105/95/60 200/95/60 201/96/4 104/96/4
f 104/96/5 201/96/5 202/97/6 103/97/6
f 103/97/7 202/97/7 203/98/8 102/98/8
f 102/98/8 203/98/8 204/99/9 101/99/9
f 101/99/9 204/99/9 205/100/10 100/100/10
f 100/100/11 205/100/11 206/101/12 99/101/12
f 99/101/12 206/101/12 207/102/13 98/102/13
f 98/102/13 207/102/13 208/103/61 97/103/61
f 97/103/62 208/103/62 209/104/63 96/104/63
f 96/104/63 209/104/63 210/105/64 95/105/64
f 95/105/64 210/105/64 177/72/59 84/72/59
f 84/72/59 177/72/59 178/73/65 83/73/65
f 83/73/65 178/73/65 179/74/66 82/74/66
f 82/74/66 179/74/66 180/75/67 81/75/67
f 81/75/68 180/75/68 181/76/48 80/76/48
f 80/76/48 181/76/48 182/77/49 79/77/49
f 79/77/49 182/77/49 183/78/50 78/78/50
f 78/78/51 183/78/51 184/79/52 77/79/52
f 77/79/52 184/79/52 185/80/53 76/80/53
f 76/80/53 185/80/53 186/81/54 75/81/54
f 75/81/55 186/81/55 187/82/56 74/82/56
f 74/82/57 187/82/57 188/83/69 73/83/69
f 73/83/59 188/83/59 189/84/59 72/84/59
f 72/84/59 189/84/59 190/85/59 85/85/59
f 85/85/3 190/85/3 164/59/3 59/59/3
f 59/59/3 164/59/3 165/60/3 68/60/3
f 68/60/70 165/60/70 166/61/35 67/61/35
f 67/61/35 166/61/35 167/62/36 66/62/36
f 66/62/36 167/62/36 168/63/37 65/63/37
f 65/63/38 168/63/38 169/64/39 64/64/39
f 64/64/39 169/64/39 170/65/40 63/65/40
f 63/65/40 170/65/40 171/66/41 62/66/41
f 62/66/42 171/66/42 172/67/43 61/67/43
f 61/67/44 172/67/44 173/68/3 60/68/3
f 60/68/3 173/68/3 113/8/3 9/8/3
